<svg width="36" height="51" viewBox="0 0 36 51" fill="none" xmlns="http://www.w3.org/2000/svg">
<path d="M32.7461 4.89844H32.1113V3.23516C32.1103 2.63988 31.8733 2.0693 31.4522 1.64848C31.0312 1.22767 30.4605 0.990957 29.8652 0.990234L29.5723 0.990234C28.9768 0.990958 28.4059 1.22783 27.9848 1.6489C27.5638 2.06997 27.3269 2.64085 27.3262 3.23633V4.89961H24.2988V3.23516C24.2978 2.63988 24.0608 2.0693 23.6397 1.64848C23.2187 1.22767 22.648 0.990957 22.0527 0.990234H21.7598C21.1643 0.990958 20.5934 1.22783 20.1723 1.6489C19.7513 2.06997 19.5144 2.64085 19.5137 3.23633V4.89961H16.4863V3.23516C16.4853 2.63988 16.2483 2.0693 15.8272 1.64848C15.4062 1.22767 14.8355 0.990957 14.2402 0.990234L13.9473 0.990234C13.3518 0.990958 12.7809 1.22783 12.3598 1.6489C11.9388 2.06997 11.7019 2.64085 11.7012 3.23633V4.89961H8.67383V3.23516C8.67279 2.63988 8.43578 2.0693 8.01475 1.64848C7.59372 1.22767 7.02301 0.990957 6.42773 0.990234L6.13477 0.990234C5.53929 0.990958 4.9684 1.22783 4.54734 1.6489C4.12627 2.06997 3.8894 2.64085 3.88867 3.23633V4.89961H3.25391C2.45129 4.90054 1.68181 5.21979 1.11428 5.78733C0.546743 6.35486 0.227493 7.12434 0.226562 7.92695V50.3098C0.227389 50.4905 0.299775 50.6636 0.427884 50.7911C0.555993 50.9186 0.729396 50.9902 0.910156 50.9902H35.0898C35.2711 50.9902 35.445 50.9182 35.5732 50.79C35.7014 50.6618 35.7734 50.4879 35.7734 50.3066V7.92578C35.7725 7.12317 35.4533 6.35369 34.8857 5.78615C34.3182 5.21862 33.5487 4.89937 32.7461 4.89844ZM28.6934 3.23516C28.6937 3.00215 28.7864 2.77878 28.9511 2.61402C29.1159 2.44926 29.3393 2.35656 29.5723 2.35625H29.8652C30.0982 2.35656 30.3216 2.44926 30.4864 2.61402C30.6511 2.77878 30.7438 3.00215 30.7441 3.23516V8.86641H28.6934V3.23516ZM20.8809 3.23516C20.8812 3.00215 20.9739 2.77878 21.1386 2.61402C21.3034 2.44926 21.5268 2.35656 21.7598 2.35625H22.0527C22.2857 2.35656 22.5091 2.44926 22.6739 2.61402C22.8386 2.77878 22.9313 3.00215 22.9316 3.23516V8.86641H20.8809V3.23516ZM13.0684 3.23516C13.0687 3.00215 13.1614 2.77878 13.3261 2.61402C13.4909 2.44926 13.7143 2.35656 13.9473 2.35625H14.2402C14.4732 2.35656 14.6966 2.44926 14.8614 2.61402C15.0261 2.77878 15.1188 3.00215 15.1191 3.23516V8.86641H13.0684V3.23516ZM5.25586 3.23516C5.25617 3.00215 5.34887 2.77878 5.51363 2.61402C5.67839 2.44926 5.90176 2.35656 6.13477 2.35625H6.42773C6.66074 2.35656 6.88411 2.44926 7.04887 2.61402C7.21363 2.77878 7.30633 3.00215 7.30664 3.23516V8.86641H5.25586V3.23516ZM1.59375 7.92578C1.59427 7.48564 1.76934 7.06367 2.08057 6.75244C2.3918 6.44122 2.81376 6.26614 3.25391 6.26562H3.88867V9.55C3.88867 9.7313 3.96069 9.90518 4.08889 10.0334C4.21709 10.1616 4.39097 10.2336 4.57227 10.2336H7.99023C8.17153 10.2336 8.34541 10.1616 8.47361 10.0334C8.60181 9.90518 8.67383 9.7313 8.67383 9.55V6.26562H11.7012V9.55C11.7012 9.7313 11.7732 9.90518 11.9014 10.0334C12.0296 10.1616 12.2035 10.2336 12.3848 10.2336H15.8027C15.984 10.2336 16.1579 10.1616 16.2861 10.0334C16.4143 9.90518 16.4863 9.7313 16.4863 9.55V6.26562H19.5137V9.55C19.5137 9.7313 19.5857 9.90518 19.7139 10.0334C19.8421 10.1616 20.016 10.2336 20.1973 10.2336H23.6152C23.7965 10.2336 23.9704 10.1616 24.0986 10.0334C24.2268 9.90518 24.2988 9.7313 24.2988 9.55V6.26562H27.3262V9.55C27.3262 9.7313 27.3982 9.90518 27.5264 10.0334C27.6546 10.1616 27.8285 10.2336 28.0098 10.2336H31.4277C31.609 10.2336 31.7829 10.1616 31.9111 10.0334C32.0393 9.90518 32.1113 9.7313 32.1113 9.55V6.26562H32.7461C33.1862 6.26614 33.6082 6.44122 33.9194 6.75244C34.2307 7.06367 34.4057 7.48564 34.4062 7.92578V12.834H1.59375V7.92578ZM34.4062 49.623H1.59375V14.2012H34.4062V49.623Z" fill="#2BA84A"/>
<path d="M6.30352 20.8703L5.97657 22.7769C5.955 22.9027 5.96903 23.0319 6.01708 23.1501C6.06513 23.2682 6.14528 23.3706 6.24846 23.4456C6.35165 23.5205 6.47376 23.5652 6.60098 23.5744C6.7282 23.5836 6.85546 23.557 6.96836 23.4976L8.68126 22.5992L10.3938 23.4976C10.5067 23.557 10.6339 23.5836 10.7611 23.5744C10.8884 23.5652 11.0105 23.5205 11.1137 23.4456C11.2168 23.3706 11.297 23.2682 11.345 23.1501C11.3931 23.0319 11.4071 22.9027 11.3856 22.7769L11.0586 20.8703L12.4441 19.5195C12.5355 19.4305 12.6001 19.3177 12.6307 19.1938C12.6612 19.07 12.6565 18.9401 12.6171 18.8187C12.5777 18.6974 12.5051 18.5896 12.4076 18.5074C12.3101 18.4251 12.1915 18.3718 12.0652 18.3535L10.1512 18.075L9.29415 16.3418C9.23771 16.2274 9.15038 16.131 9.04203 16.0636C8.93369 15.9963 8.80865 15.9606 8.68106 15.9606C8.55347 15.9606 8.42843 15.9963 8.32009 16.0636C8.21174 16.131 8.12441 16.2274 8.06797 16.3418L7.21172 18.0766L5.29766 18.3551C5.17143 18.3734 5.05284 18.4267 4.95531 18.5089C4.85778 18.5911 4.7852 18.699 4.74578 18.8203C4.70635 18.9416 4.70166 19.0715 4.73223 19.1954C4.7628 19.3192 4.82741 19.4321 4.91875 19.5211L6.30352 20.8703ZM7.76563 19.3762C7.87537 19.3604 7.9796 19.3181 8.06931 19.253C8.15902 19.1878 8.2315 19.1018 8.28047 19.0023L8.68321 18.1871L9.08516 19.0023C9.13416 19.1018 9.20665 19.1878 9.29635 19.2529C9.38606 19.3181 9.49028 19.3604 9.6 19.3762L10.4984 19.507L9.84727 20.1418C9.76822 20.2193 9.70915 20.3149 9.67513 20.4203C9.64111 20.5257 9.63316 20.6377 9.65196 20.7469L9.80586 21.643L9.00118 21.2199C8.90299 21.1685 8.79382 21.1417 8.68301 21.1417C8.5722 21.1417 8.46303 21.1685 8.36485 21.2199L7.56016 21.643L7.71368 20.7469C7.73257 20.6377 7.72467 20.5256 7.69065 20.4202C7.65663 20.3148 7.5975 20.2193 7.51836 20.1418L6.86407 19.5059L7.76563 19.3762Z" fill="#2BA84A"/>
<path d="M15.6227 20.8703L15.2957 22.7769C15.2741 22.9026 15.2882 23.0319 15.3362 23.15C15.3843 23.2682 15.4644 23.3706 15.5676 23.4455C15.6708 23.5205 15.7929 23.5651 15.9201 23.5743C16.0474 23.5835 16.1746 23.557 16.2875 23.4976L18 22.5976L19.7125 23.4961C19.8254 23.5554 19.9527 23.582 20.0799 23.5728C20.2071 23.5636 20.3292 23.519 20.4324 23.444C20.5356 23.369 20.6158 23.2666 20.6638 23.1485C20.7119 23.0303 20.7259 22.9011 20.7043 22.7754L20.3774 20.8687L21.7629 19.5179C21.8543 19.4289 21.9189 19.3161 21.9494 19.1922C21.98 19.0684 21.9753 18.9385 21.9359 18.8172C21.8965 18.6958 21.8239 18.588 21.7264 18.5058C21.6288 18.4235 21.5102 18.3703 21.384 18.3519L19.4699 18.0734L18.6129 16.3418C18.5565 16.2273 18.4693 16.131 18.3609 16.0636C18.2526 15.9962 18.1276 15.9604 18 15.9604C17.8724 15.9604 17.7474 15.9962 17.6391 16.0636C17.5308 16.131 17.4435 16.2273 17.3871 16.3418L16.5309 18.0765L14.6168 18.3551C14.4906 18.3734 14.372 18.4267 14.2745 18.5089C14.1769 18.5911 14.1044 18.699 14.0649 18.8203C14.0255 18.9416 14.0208 19.0715 14.0514 19.1954C14.082 19.3192 14.1466 19.432 14.2379 19.5211L15.6227 20.8703ZM17.0828 19.3761C17.1926 19.3604 17.2968 19.3181 17.3865 19.2529C17.4762 19.1878 17.5487 19.1018 17.5977 19.0023L18 18.1871L18.4024 19.0023C18.4513 19.1018 18.5238 19.1878 18.6135 19.2529C18.7032 19.3181 18.8075 19.3604 18.9172 19.3761L19.8156 19.507L19.1645 20.1418C19.0854 20.2193 19.0263 20.3149 18.9923 20.4203C18.9583 20.5257 18.9504 20.6377 18.9692 20.7468L19.1227 21.6429L18.3184 21.2199C18.2202 21.1683 18.1109 21.1414 18 21.1414C17.8891 21.1414 17.7799 21.1683 17.6817 21.2199L16.8774 21.6429L17.0309 20.7468C17.0497 20.6377 17.0417 20.5257 17.0077 20.4203C16.9737 20.3149 16.9146 20.2193 16.8356 20.1418L16.1832 19.5058L17.0828 19.3761Z" fill="#2BA84A"/>
<path d="M24.9414 20.8703L24.6144 22.7769C24.5928 22.9027 24.6069 23.0319 24.6549 23.1501C24.703 23.2682 24.7831 23.3706 24.8863 23.4456C24.9895 23.5205 25.1116 23.5652 25.2388 23.5744C25.366 23.5836 25.4933 23.557 25.6062 23.4976L27.3187 22.5992L29.0316 23.4976C29.1445 23.557 29.2718 23.5836 29.399 23.5744C29.5262 23.5652 29.6483 23.5205 29.7515 23.4456C29.8547 23.3706 29.9348 23.2682 29.9829 23.1501C30.0309 23.0319 30.045 22.9027 30.0234 22.7769L29.6964 20.8703L31.082 19.5195C31.1733 19.4305 31.2379 19.3177 31.2685 19.1938C31.2991 19.07 31.2944 18.9401 31.255 18.8187C31.2155 18.6974 31.143 18.5896 31.0454 18.5074C30.9479 18.4251 30.8293 18.3718 30.7031 18.3535L28.789 18.075L27.932 16.3418C27.8756 16.2274 27.7882 16.131 27.6799 16.0636C27.5715 15.9963 27.4465 15.9606 27.3189 15.9606C27.1913 15.9606 27.0663 15.9963 26.9579 16.0636C26.8496 16.131 26.7623 16.2274 26.7058 16.3418L25.8515 18.075L23.9375 18.3535C23.8112 18.3718 23.6926 18.4251 23.5951 18.5074C23.4976 18.5896 23.425 18.6974 23.3856 18.8187C23.3462 18.9401 23.3415 19.07 23.372 19.1938C23.4026 19.3177 23.4672 19.4305 23.5586 19.5195L24.9414 20.8703ZM26.4019 19.3762C26.5116 19.3604 26.6159 19.3181 26.7056 19.2529C26.7953 19.1878 26.8678 19.1018 26.9168 19.0023L27.3187 18.1871L27.7214 19.0023C27.7704 19.1018 27.8429 19.1878 27.9326 19.253C28.0223 19.3181 28.1266 19.3604 28.2363 19.3762L29.1347 19.507L28.4836 20.1418C28.4044 20.2193 28.3453 20.3148 28.3113 20.4202C28.2772 20.5256 28.2693 20.6377 28.2882 20.7469L28.4418 21.643L27.6371 21.2199C27.5389 21.1684 27.4298 21.1414 27.3189 21.1414C27.2081 21.1414 27.0989 21.1684 27.0007 21.2199L26.1961 21.643L26.35 20.7469C26.3688 20.6377 26.3608 20.5257 26.3268 20.4203C26.2928 20.3149 26.2337 20.2193 26.1546 20.1418L25.5023 19.5059L26.4019 19.3762Z" fill="#2BA84A"/>
<path d="M5.27228 27.8449H30.7277C30.909 27.8449 31.0829 27.7729 31.2111 27.6447C31.3393 27.5165 31.4113 27.3426 31.4113 27.1613C31.4113 26.98 31.3393 26.8061 31.2111 26.6779C31.0829 26.5497 30.909 26.4777 30.7277 26.4777H5.27228C5.09098 26.4777 4.9171 26.5497 4.7889 26.6779C4.66071 26.8061 4.58868 26.98 4.58868 27.1613C4.58868 27.3426 4.66071 27.5165 4.7889 27.6447C4.9171 27.7729 5.09098 27.8449 5.27228 27.8449Z" fill="#2BA84A"/>
<path d="M7.99023 30.7469C7.80893 30.7469 7.63506 30.8189 7.50686 30.9471C7.37866 31.0753 7.30664 31.2492 7.30664 31.4305C7.30664 31.6118 7.37866 31.7857 7.50686 31.9139C7.63506 32.0421 7.80893 32.1141 7.99023 32.1141H28.0098C28.1911 32.1141 28.3649 32.0421 28.4931 31.9139C28.6213 31.7857 28.6934 31.6118 28.6934 31.4305C28.6934 31.2492 28.6213 31.0753 28.4931 30.9471C28.3649 30.8189 28.1911 30.7469 28.0098 30.7469H7.99023Z" fill="#2BA84A"/>
<path d="M5.27228 36.3809H30.7277C30.909 36.3809 31.0829 36.3088 31.2111 36.1806C31.3393 36.0524 31.4113 35.8786 31.4113 35.6973C31.4113 35.516 31.3393 35.3421 31.2111 35.2139C31.0829 35.0857 30.909 35.0137 30.7277 35.0137H5.27228C5.09098 35.0137 4.9171 35.0857 4.7889 35.2139C4.66071 35.3421 4.58868 35.516 4.58868 35.6973C4.58868 35.8786 4.66071 36.0524 4.7889 36.1806C4.9171 36.3088 5.09098 36.3809 5.27228 36.3809Z" fill="#2BA84A"/>
<path d="M7.99023 39.284C7.80893 39.284 7.63506 39.356 7.50686 39.4842C7.37866 39.6124 7.30664 39.7863 7.30664 39.9676C7.30664 40.1489 7.37866 40.3228 7.50686 40.451C7.63506 40.5792 7.80893 40.6512 7.99023 40.6512H28.0098C28.1911 40.6512 28.3649 40.5792 28.4931 40.451C28.6213 40.3228 28.6934 40.1489 28.6934 39.9676C28.6934 39.7863 28.6213 39.6124 28.4931 39.4842C28.3649 39.356 28.1911 39.284 28.0098 39.284H7.99023Z" fill="#2BA84A"/>
<path d="M5.27228 44.9203H30.7277C30.909 44.9203 31.0829 44.8483 31.2111 44.7201C31.3393 44.5919 31.4113 44.418 31.4113 44.2367C31.4113 44.0554 31.3393 43.8815 31.2111 43.7533C31.0829 43.6251 30.909 43.5531 30.7277 43.5531H5.27228C5.18251 43.5531 5.09361 43.5708 5.01068 43.6051C4.92774 43.6395 4.85238 43.6898 4.7889 43.7533C4.72543 43.8168 4.67507 43.8922 4.64072 43.9751C4.60637 44.058 4.58868 44.1469 4.58868 44.2367C4.58868 44.3265 4.60637 44.4154 4.64072 44.4983C4.67507 44.5812 4.72543 44.6566 4.7889 44.7201C4.85238 44.7835 4.92774 44.8339 5.01068 44.8683C5.09361 44.9026 5.18251 44.9203 5.27228 44.9203Z" fill="#2BA84A"/>
</svg>
