<svg width="48" height="16" viewBox="0 0 48 16" fill="none" xmlns="http://www.w3.org/2000/svg">
<path d="M20.0756 0.6875L17.7066 15.4297H21.4932L23.8607 0.6875H20.0756ZM31.4973 6.69265C30.1741 6.0392 29.3629 5.59817 29.3629 4.92983C29.3791 4.32217 30.0489 3.69962 31.5446 3.69962C32.7748 3.66872 33.679 3.95783 34.365 4.24548L34.7086 4.39885L35.2234 1.31442C34.4755 1.02531 33.2896 0.706752 31.8248 0.706752C28.0854 0.706752 25.4524 2.65092 25.436 5.43153C25.4051 7.48345 27.3212 8.6221 28.7551 9.30516C30.2199 10.0058 30.7185 10.4601 30.7185 11.0827C30.7023 12.0385 29.5341 12.4795 28.4439 12.4795C26.9335 12.4795 26.1222 12.2524 24.8905 11.7198L24.3919 11.4927L23.8623 14.6981C24.7518 15.0935 26.3877 15.4415 28.0856 15.4593C32.0595 15.4593 34.6453 13.5446 34.6779 10.5812C34.6908 8.95554 33.6805 7.71044 31.4973 6.69265ZM44.931 0.733123H42.0014C41.0986 0.733123 40.4127 0.992789 40.0218 1.91917L34.3972 15.4297H38.3711L39.4656 12.5046H43.9116L44.4795 15.4415H47.9844L44.931 0.733123ZM40.5677 9.55269C40.6443 9.56013 42.093 4.77776 42.093 4.77776L43.2465 9.55269C43.2465 9.55269 41.3156 9.55269 40.5677 9.55269ZM14.5425 0.6875L10.8326 10.7035L10.4285 8.72823C9.74254 6.44916 7.59192 3.97255 5.19184 2.74233L8.58901 15.415H12.5955L18.549 0.689117H14.5425V0.6875Z" fill="#2394BC"/>
<path d="M9.1805 2.58955C8.89139 1.46547 7.96937 0.707341 6.71715 0.691162H0.841758L0.78125 0.963932C5.36447 2.09384 9.2114 5.57061 10.4594 8.84094L9.1805 2.58955Z" fill="#EFC75E"/>
</svg>
