<svg width="451" height="689" viewBox="0 0 451 689" fill="none" xmlns="http://www.w3.org/2000/svg">
<g clip-path="url(#clip0_260_17302)">
<path d="M797.824 650.185C798.123 651.037 799.057 651.486 799.909 651.187C800.761 650.888 801.21 649.955 800.911 649.102C761.353 536.282 676.168 424.931 563.33 333.639C454.005 245.189 318.706 175.543 173.789 141.612C172.906 141.405 172.022 141.954 171.815 142.837C171.608 143.72 172.157 144.604 173.04 144.811C317.474 178.628 452.318 248.039 561.27 336.188C673.652 427.111 758.47 537.946 797.824 650.185Z" fill="#5FA494"/>
<path fill-rule="evenodd" clip-rule="evenodd" d="M325.928 224.005C324.242 206.341 296.965 194.495 265.003 197.545C233.041 200.596 208.497 217.387 210.183 235.051C211.868 252.714 239.145 264.56 271.107 261.51C303.07 258.46 327.614 241.668 325.928 224.005Z" fill="#E6BE80"/>
<mask id="mask0_260_17302" style="mask-type:alpha" maskUnits="userSpaceOnUse" x="210" y="197" width="117" height="65">
<path fill-rule="evenodd" clip-rule="evenodd" d="M325.929 224.005C324.244 206.342 296.967 194.496 265.005 197.546C233.042 200.596 208.499 217.388 210.184 235.051C211.87 252.715 239.147 264.561 271.109 261.511C303.071 258.46 327.615 241.669 325.929 224.005Z" fill="#E6BE80"/>
</mask>
<g mask="url(#mask0_260_17302)">
<path d="M203.824 264.836C202.625 268.196 207.207 272.902 214.058 275.345C220.909 277.788 227.435 277.044 228.633 273.684C229.832 270.323 225.25 265.617 218.399 263.174C211.548 260.731 205.023 261.475 203.824 264.836Z" stroke="#FEFEFE" stroke-width="0.748756" stroke-miterlimit="22.9256"/>
<path d="M220.301 284.707C223.126 282.527 221.814 276.091 217.37 270.333C212.926 264.575 207.033 261.674 204.208 263.854C201.384 266.034 202.696 272.47 207.14 278.228C211.584 283.986 217.477 286.887 220.301 284.707Z" stroke="#FEFEFE" stroke-width="0.748755" stroke-miterlimit="22.9256"/>
<path d="M206.135 256.899C209.496 258.098 214.201 253.516 216.645 246.665C219.088 239.814 218.344 233.288 214.983 232.09C211.622 230.891 206.917 235.473 204.474 242.324C202.031 249.175 202.774 255.701 206.135 256.899Z" stroke="#FEFEFE" stroke-width="0.748756" stroke-miterlimit="22.9256"/>
<path d="M205.029 255.466C204.721 251.912 210.346 248.521 217.592 247.894C224.839 247.267 230.963 249.64 231.271 253.195C231.578 256.75 225.953 260.14 218.707 260.768C211.46 261.395 205.336 259.021 205.029 255.466Z" stroke="#FEFEFE" stroke-width="0.748756" stroke-miterlimit="22.9256"/>
<path d="M226.006 240.42C228.186 243.245 225.286 249.137 219.527 253.581C213.769 258.025 207.334 259.337 205.154 256.513C202.974 253.688 205.874 247.795 211.633 243.351C217.391 238.908 223.826 237.595 226.006 240.42Z" stroke="#FEFEFE" stroke-width="0.748755" stroke-miterlimit="22.9256"/>
<path d="M264.069 261.456C267.624 261.148 271.014 266.773 271.641 274.02C272.268 281.266 269.895 287.39 266.34 287.698C262.785 288.005 259.395 282.38 258.768 275.134C258.14 267.887 260.514 261.763 264.069 261.456Z" stroke="#FEFEFE" stroke-width="0.748756" stroke-miterlimit="22.9256"/>
<path d="M262.637 262.562C261.439 265.923 266.021 270.628 272.872 273.071C279.723 275.515 286.248 274.771 287.447 271.41C288.646 268.049 284.063 263.344 277.212 260.901C270.361 258.457 263.836 259.201 262.637 262.562Z" stroke="#FEFEFE" stroke-width="0.748756" stroke-miterlimit="22.9256"/>
<path d="M279.115 282.434C281.94 280.254 280.627 273.819 276.183 268.06C271.739 262.302 265.847 259.401 263.022 261.581C260.197 263.762 261.51 270.197 265.954 275.955C270.398 281.713 276.29 284.614 279.115 282.434Z" stroke="#FEFEFE" stroke-width="0.748755" stroke-miterlimit="22.9256"/>
<path d="M255.806 261.683C256.114 265.238 250.489 268.628 243.242 269.255C235.996 269.883 229.872 267.509 229.564 263.954C229.256 260.399 234.881 257.009 242.128 256.382C249.374 255.755 255.498 258.128 255.806 261.683Z" stroke="#FEFEFE" stroke-width="0.748756" stroke-miterlimit="22.9256"/>
<path d="M254.7 260.25C251.339 259.052 246.634 263.634 244.191 270.485C241.747 277.336 242.491 283.861 245.852 285.06C249.213 286.258 253.918 281.676 256.361 274.825C258.805 267.974 258.061 261.449 254.7 260.25Z" stroke="#FEFEFE" stroke-width="0.748756" stroke-miterlimit="22.9256"/>
<path d="M234.828 276.729C237.008 279.554 243.444 278.241 249.202 273.797C254.96 269.353 257.861 263.461 255.681 260.636C253.501 257.811 247.065 259.124 241.307 263.568C235.549 268.012 232.648 273.904 234.828 276.729Z" stroke="#FEFEFE" stroke-width="0.748755" stroke-miterlimit="22.9256"/>
<path d="M257.015 252.314C258.214 248.953 253.631 244.248 246.78 241.805C239.929 239.361 233.404 240.105 232.205 243.466C231.007 246.827 235.589 251.532 242.44 253.975C249.291 256.419 255.816 255.675 257.015 252.314Z" stroke="#FEFEFE" stroke-width="0.748756" stroke-miterlimit="22.9256"/>
<path d="M255.58 253.419C252.025 253.727 248.635 248.102 248.007 240.855C247.38 233.609 249.753 227.485 253.308 227.177C256.863 226.87 260.254 232.495 260.881 239.741C261.508 246.988 259.135 253.112 255.58 253.419Z" stroke="#FEFEFE" stroke-width="0.748756" stroke-miterlimit="22.9256"/>
<path d="M240.534 232.442C243.359 230.262 249.251 233.162 253.695 238.92C258.139 244.679 259.452 251.114 256.627 253.294C253.802 255.474 247.91 252.573 243.466 246.815C239.022 241.057 237.709 234.622 240.534 232.442Z" stroke="#FEFEFE" stroke-width="0.748755" stroke-miterlimit="22.9256"/>
<path d="M264.949 254.626C268.31 255.825 273.015 251.243 275.459 244.392C277.902 237.541 277.158 231.015 273.797 229.817C270.436 228.618 265.731 233.2 263.288 240.051C260.845 246.902 261.588 253.428 264.949 254.626Z" stroke="#FEFEFE" stroke-width="0.748756" stroke-miterlimit="22.9256"/>
<path d="M263.843 253.193C263.535 249.638 269.16 246.248 276.407 245.621C283.653 244.993 289.777 247.367 290.085 250.922C290.393 254.477 284.768 257.867 277.521 258.494C270.275 259.121 264.151 256.748 263.843 253.193Z" stroke="#FEFEFE" stroke-width="0.748756" stroke-miterlimit="22.9256"/>
<path d="M284.82 238.147C287 240.972 284.1 246.864 278.341 251.308C272.583 255.752 266.148 257.065 263.968 254.24C261.788 251.415 264.688 245.522 270.447 241.079C276.205 236.635 282.64 235.322 284.82 238.147Z" stroke="#FEFEFE" stroke-width="0.748755" stroke-miterlimit="22.9256"/>
<path d="M221.866 206.767C225.42 206.46 228.811 212.085 229.438 219.331C230.065 226.578 227.692 232.702 224.137 233.009C220.582 233.317 217.192 227.692 216.565 220.445C215.937 213.199 218.311 207.075 221.866 206.767Z" stroke="#FEFEFE" stroke-width="0.748756" stroke-miterlimit="22.9256"/>
<path d="M220.432 207.874C219.233 211.234 223.815 215.94 230.666 218.383C237.517 220.826 244.043 220.082 245.241 216.722C246.44 213.361 241.858 208.656 235.007 206.212C228.156 203.769 221.63 204.513 220.432 207.874Z" stroke="#FEFEFE" stroke-width="0.748756" stroke-miterlimit="22.9256"/>
<path d="M236.912 227.746C239.737 225.566 238.424 219.131 233.98 213.372C229.536 207.614 223.644 204.713 220.819 206.893C217.994 209.074 219.307 215.509 223.751 221.267C228.194 227.025 234.087 229.926 236.912 227.746Z" stroke="#FEFEFE" stroke-width="0.748755" stroke-miterlimit="22.9256"/>
<path d="M213.601 206.994C213.909 210.549 208.284 213.939 201.038 214.566C193.791 215.194 187.667 212.82 187.359 209.265C187.052 205.71 192.677 202.32 199.923 201.693C207.17 201.066 213.294 203.439 213.601 206.994Z" stroke="#FEFEFE" stroke-width="0.748756" stroke-miterlimit="22.9256"/>
<path d="M212.496 205.561C209.135 204.362 204.429 208.944 201.986 215.795C199.543 222.646 200.287 229.172 203.648 230.37C207.008 231.569 211.714 226.987 214.157 220.136C216.6 213.285 215.856 206.759 212.496 205.561Z" stroke="#FEFEFE" stroke-width="0.748756" stroke-miterlimit="22.9256"/>
<path d="M192.624 222.041C194.804 224.865 201.239 223.553 206.997 219.109C212.756 214.665 215.656 208.773 213.476 205.948C211.296 203.123 204.861 204.436 199.103 208.879C193.344 213.323 190.444 219.216 192.624 222.041Z" stroke="#FEFEFE" stroke-width="0.748755" stroke-miterlimit="22.9256"/>
<path d="M214.81 197.624C216.008 194.264 211.426 189.558 204.575 187.115C197.724 184.672 191.199 185.416 190 188.776C188.802 192.137 193.384 196.843 200.235 199.286C207.086 201.729 213.611 200.985 214.81 197.624Z" stroke="#FEFEFE" stroke-width="0.748756" stroke-miterlimit="22.9256"/>
<path d="M213.375 198.73C209.82 199.038 206.43 193.413 205.803 186.166C205.176 178.92 207.549 172.796 211.104 172.488C214.659 172.181 218.049 177.806 218.676 185.052C219.303 192.299 216.93 198.423 213.375 198.73Z" stroke="#FEFEFE" stroke-width="0.748756" stroke-miterlimit="22.9256"/>
<path d="M198.329 177.752C201.154 175.572 207.046 178.473 211.49 184.231C215.934 189.989 217.247 196.424 214.422 198.604C211.597 200.784 205.705 197.884 201.261 192.126C196.817 186.367 195.504 179.932 198.329 177.752Z" stroke="#FEFEFE" stroke-width="0.748755" stroke-miterlimit="22.9256"/>
<path d="M222.746 199.937C226.107 201.136 230.812 196.554 233.255 189.703C235.698 182.852 234.955 176.326 231.594 175.128C228.233 173.929 223.528 178.511 221.084 185.362C218.641 192.213 219.385 198.739 222.746 199.937Z" stroke="#FEFEFE" stroke-width="0.748756" stroke-miterlimit="22.9256"/>
<path d="M221.64 198.505C221.332 194.95 226.957 191.56 234.204 190.933C241.45 190.305 247.574 192.679 247.882 196.234C248.19 199.789 242.564 203.179 235.318 203.806C228.071 204.433 221.948 202.06 221.64 198.505Z" stroke="#FEFEFE" stroke-width="0.748756" stroke-miterlimit="22.9256"/>
<path d="M242.617 183.459C244.797 186.284 241.896 192.176 236.138 196.62C230.379 201.064 223.944 202.377 221.764 199.552C219.584 196.727 222.485 190.834 228.243 186.391C234.001 181.947 240.436 180.634 242.617 183.459Z" stroke="#FEFEFE" stroke-width="0.748755" stroke-miterlimit="22.9256"/>
<path d="M331.083 203.587C331.391 207.142 325.765 210.532 318.519 211.159C311.272 211.786 305.149 209.413 304.841 205.858C304.533 202.303 310.158 198.913 317.405 198.286C324.651 197.658 330.775 200.032 331.083 203.587Z" stroke="#FEFEFE" stroke-width="0.748756" stroke-miterlimit="22.9256"/>
<path d="M329.977 202.153C326.616 200.954 321.911 205.537 319.468 212.388C317.024 219.238 317.768 225.764 321.129 226.963C324.49 228.161 329.195 223.579 331.638 216.728C334.082 209.877 333.338 203.352 329.977 202.153Z" stroke="#FEFEFE" stroke-width="0.748756" stroke-miterlimit="22.9256"/>
<path d="M310.105 218.633C312.285 221.458 318.721 220.145 324.479 215.701C330.237 211.257 333.138 205.365 330.958 202.54C328.778 199.715 322.342 201.028 316.584 205.472C310.826 209.916 307.925 215.808 310.105 218.633Z" stroke="#FEFEFE" stroke-width="0.748755" stroke-miterlimit="22.9256"/>
<path d="M332.289 194.218C333.488 190.857 328.906 186.152 322.055 183.708C315.204 181.265 308.678 182.009 307.48 185.37C306.281 188.731 310.863 193.436 317.714 195.879C324.565 198.322 331.091 197.579 332.289 194.218Z" stroke="#FEFEFE" stroke-width="0.748756" stroke-miterlimit="22.9256"/>
<path d="M315.81 174.346C318.635 172.166 324.528 175.067 328.972 180.825C333.416 186.583 334.728 193.019 331.903 195.199C329.079 197.379 323.186 194.478 318.742 188.72C314.298 182.962 312.986 176.526 315.81 174.346Z" stroke="#FEFEFE" stroke-width="0.748755" stroke-miterlimit="22.9256"/>
<path d="M322.74 260.322C326.294 260.015 329.685 265.64 330.312 272.886C330.939 280.133 328.566 286.257 325.011 286.564C321.456 286.872 318.066 281.247 317.439 274.001C316.811 266.754 319.185 260.63 322.74 260.322Z" stroke="#FEFEFE" stroke-width="0.748756" stroke-miterlimit="22.9256"/>
<path d="M321.306 261.428C320.107 264.789 324.689 269.494 331.54 271.937C338.391 274.38 344.917 273.637 346.115 270.276C347.314 266.915 342.732 262.21 335.881 259.766C329.03 257.323 322.504 258.067 321.306 261.428Z" stroke="#FEFEFE" stroke-width="0.748756" stroke-miterlimit="22.9256"/>
<path d="M337.786 281.3C340.611 279.12 339.298 272.685 334.854 266.927C330.41 261.169 324.518 258.268 321.693 260.448C318.868 262.628 320.181 269.063 324.625 274.822C329.069 280.58 334.961 283.481 337.786 281.3Z" stroke="#FEFEFE" stroke-width="0.748755" stroke-miterlimit="22.9256"/>
<path d="M314.474 260.548C314.782 264.103 309.157 267.493 301.911 268.121C294.664 268.748 288.54 266.374 288.232 262.82C287.925 259.265 293.55 255.874 300.796 255.247C308.043 254.62 314.167 256.993 314.474 260.548Z" stroke="#FEFEFE" stroke-width="0.748756" stroke-miterlimit="22.9256"/>
<path d="M313.37 259.115C310.009 257.916 305.303 262.498 302.86 269.349C300.417 276.2 301.161 282.726 304.522 283.924C307.882 285.123 312.588 280.541 315.031 273.69C317.474 266.839 316.73 260.314 313.37 259.115Z" stroke="#FEFEFE" stroke-width="0.748756" stroke-miterlimit="22.9256"/>
<path d="M293.497 275.594C295.677 278.419 302.112 277.107 307.87 272.663C313.629 268.219 316.529 262.326 314.349 259.501C312.169 256.677 305.734 257.989 299.976 262.433C294.218 266.877 291.317 272.77 293.497 275.594Z" stroke="#FEFEFE" stroke-width="0.748755" stroke-miterlimit="22.9256"/>
<path d="M315.683 251.18C316.882 247.819 312.3 243.114 305.449 240.671C298.598 238.227 292.072 238.971 290.874 242.332C289.675 245.693 294.257 250.398 301.108 252.841C307.959 255.285 314.485 254.541 315.683 251.18Z" stroke="#FEFEFE" stroke-width="0.748756" stroke-miterlimit="22.9256"/>
<path d="M314.249 252.286C310.694 252.594 307.304 246.969 306.676 239.722C306.049 232.476 308.422 226.352 311.977 226.044C315.532 225.736 318.923 231.361 319.55 238.608C320.177 245.854 317.804 251.978 314.249 252.286Z" stroke="#FEFEFE" stroke-width="0.748756" stroke-miterlimit="22.9256"/>
<path d="M299.202 231.308C302.027 229.128 307.92 232.028 312.364 237.787C316.808 243.545 318.12 249.98 315.295 252.16C312.471 254.34 306.578 251.439 302.134 245.681C297.69 239.923 296.378 233.488 299.202 231.308Z" stroke="#FEFEFE" stroke-width="0.748755" stroke-miterlimit="22.9256"/>
<path d="M323.617 253.492C326.978 254.691 331.683 250.108 334.126 243.258C336.569 236.407 335.826 229.881 332.465 228.682C329.104 227.484 324.399 232.066 321.955 238.917C319.512 245.768 320.256 252.293 323.617 253.492Z" stroke="#FEFEFE" stroke-width="0.748756" stroke-miterlimit="22.9256"/>
<path d="M322.51 252.059C322.203 248.504 327.828 245.114 335.074 244.487C342.321 243.86 348.445 246.233 348.752 249.788C349.06 253.343 343.435 256.733 336.189 257.36C328.942 257.988 322.818 255.614 322.51 252.059Z" stroke="#FEFEFE" stroke-width="0.748756" stroke-miterlimit="22.9256"/>
<path d="M343.49 237.014C345.67 239.838 342.769 245.731 337.011 250.175C331.253 254.619 324.818 255.931 322.638 253.106C320.458 250.282 323.358 244.389 329.117 239.945C334.875 235.501 341.31 234.189 343.49 237.014Z" stroke="#FEFEFE" stroke-width="0.748755" stroke-miterlimit="22.9256"/>
<path d="M280.532 205.634C284.087 205.326 287.477 210.951 288.104 218.198C288.732 225.444 286.358 231.568 282.803 231.876C279.249 232.184 275.858 226.559 275.231 219.312C274.604 212.066 276.977 205.942 280.532 205.634Z" stroke="#FEFEFE" stroke-width="0.748756" stroke-miterlimit="22.9256"/>
<path d="M279.098 206.74C277.9 210.101 282.482 214.806 289.333 217.249C296.184 219.693 302.709 218.949 303.908 215.588C305.106 212.227 300.524 207.522 293.673 205.078C286.822 202.635 280.297 203.379 279.098 206.74Z" stroke="#FEFEFE" stroke-width="0.748756" stroke-miterlimit="22.9256"/>
<path d="M295.579 226.612C298.404 224.432 297.091 217.997 292.647 212.239C288.203 206.481 282.311 203.58 279.486 205.76C276.661 207.94 277.974 214.375 282.418 220.134C286.861 225.892 292.754 228.793 295.579 226.612Z" stroke="#FEFEFE" stroke-width="0.748755" stroke-miterlimit="22.9256"/>
<path d="M272.269 205.861C272.577 209.416 266.952 212.806 259.705 213.434C252.458 214.061 246.335 211.687 246.027 208.133C245.719 204.578 251.344 201.187 258.591 200.56C265.837 199.933 271.961 202.306 272.269 205.861Z" stroke="#FEFEFE" stroke-width="0.748756" stroke-miterlimit="22.9256"/>
<path d="M271.163 204.428C267.802 203.229 263.097 207.811 260.654 214.662C258.21 221.513 258.954 228.039 262.315 229.237C265.676 230.436 270.381 225.854 272.824 219.003C275.268 212.152 274.524 205.627 271.163 204.428Z" stroke="#FEFEFE" stroke-width="0.748756" stroke-miterlimit="22.9256"/>
<path d="M251.291 220.907C253.471 223.732 259.906 222.42 265.664 217.976C271.423 213.532 274.323 207.639 272.143 204.814C269.963 201.99 263.528 203.302 257.77 207.746C252.011 212.19 249.111 218.083 251.291 220.907Z" stroke="#FEFEFE" stroke-width="0.748755" stroke-miterlimit="22.9256"/>
<path d="M273.474 196.491C274.673 193.13 270.091 188.425 263.24 185.982C256.389 183.538 249.863 184.282 248.665 187.643C247.466 191.004 252.048 195.709 258.899 198.153C265.75 200.596 272.276 199.852 273.474 196.491Z" stroke="#FEFEFE" stroke-width="0.748756" stroke-miterlimit="22.9256"/>
<path d="M272.042 197.598C268.487 197.906 265.097 192.281 264.47 185.034C263.843 177.788 266.216 171.664 269.771 171.356C273.326 171.048 276.716 176.673 277.343 183.92C277.97 191.166 275.597 197.29 272.042 197.598Z" stroke="#FEFEFE" stroke-width="0.748756" stroke-miterlimit="22.9256"/>
<path d="M256.996 176.62C259.821 174.44 265.714 177.341 270.158 183.099C274.602 188.857 275.914 195.293 273.089 197.473C270.265 199.653 264.372 196.752 259.928 190.994C255.484 185.236 254.172 178.8 256.996 176.62Z" stroke="#FEFEFE" stroke-width="0.748755" stroke-miterlimit="22.9256"/>
<path d="M281.413 198.805C284.774 200.003 289.479 195.421 291.923 188.57C294.366 181.719 293.622 175.194 290.261 173.995C286.9 172.796 282.195 177.379 279.752 184.229C277.308 191.08 278.052 197.606 281.413 198.805Z" stroke="#FEFEFE" stroke-width="0.748756" stroke-miterlimit="22.9256"/>
<path d="M280.306 197.372C279.999 193.817 285.624 190.427 292.87 189.799C300.117 189.172 306.241 191.545 306.548 195.1C306.856 198.655 301.231 202.046 293.984 202.673C286.738 203.3 280.614 200.927 280.306 197.372Z" stroke="#FEFEFE" stroke-width="0.748756" stroke-miterlimit="22.9256"/>
<path d="M301.284 182.326C303.464 185.15 300.563 191.043 294.805 195.487C289.047 199.931 282.612 201.243 280.432 198.418C278.252 195.594 281.152 189.701 286.911 185.257C292.669 180.813 299.104 179.501 301.284 182.326Z" stroke="#FEFEFE" stroke-width="0.748755" stroke-miterlimit="22.9256"/>
</g>
<path fill-rule="evenodd" clip-rule="evenodd" d="M694.015 529.759C702.724 490.524 652.228 445.941 581.23 430.183C510.232 414.424 445.617 433.456 436.908 472.692C428.199 511.927 478.694 556.509 549.693 572.269C620.691 588.027 685.306 568.995 694.015 529.759Z" fill="#5FA494"/>
<mask id="mask1_260_17302" style="mask-type:alpha" maskUnits="userSpaceOnUse" x="435" y="424" width="260" height="154">
<path fill-rule="evenodd" clip-rule="evenodd" d="M694.015 529.759C702.724 490.523 652.229 445.941 581.231 430.182C510.233 414.423 445.617 433.455 436.908 472.691C428.2 511.927 478.695 556.509 549.693 572.268C620.691 588.027 685.306 568.995 694.015 529.759Z" fill="#5FA494"/>
</mask>
<g mask="url(#mask1_260_17302)">
<path d="M471.98 447.705C469.703 450.452 463.317 448.915 457.718 444.272C452.119 439.629 449.427 433.638 451.705 430.892C453.982 428.145 460.367 429.682 465.966 434.325C471.565 438.968 474.258 444.959 471.98 447.705Z" stroke="#FEFEFE" stroke-width="0.748755" stroke-miterlimit="22.9256"/>
<path d="M465.364 455.684C463.086 458.431 456.701 456.894 451.102 452.251C445.503 447.608 442.81 441.617 445.088 438.871C447.365 436.124 453.751 437.661 459.35 442.304C464.949 446.947 467.641 452.938 465.364 455.684Z" stroke="#FEFEFE" stroke-width="0.748755" stroke-miterlimit="22.9256"/>
<path d="M475.239 477.334C472.961 480.081 466.576 478.544 460.977 473.901C455.378 469.258 452.686 463.267 454.963 460.521C457.241 457.774 463.626 459.311 469.225 463.954C474.824 468.597 477.517 474.588 475.239 477.334Z" stroke="#FEFEFE" stroke-width="0.748755" stroke-miterlimit="22.9256"/>
<path d="M458.75 463.661C456.473 466.408 450.087 464.871 444.488 460.228C438.889 455.585 436.197 449.594 438.475 446.848C440.752 444.101 447.138 445.638 452.736 450.281C458.335 454.924 461.028 460.915 458.75 463.661Z" stroke="#FEFEFE" stroke-width="0.748755" stroke-miterlimit="22.9256"/>
<path d="M468.621 485.313C466.344 488.06 459.958 486.523 454.359 481.88C448.76 477.237 446.068 471.246 448.346 468.5C450.623 465.753 457.009 467.29 462.608 471.933C468.207 476.576 470.899 482.567 468.621 485.313Z" stroke="#FEFEFE" stroke-width="0.748755" stroke-miterlimit="22.9256"/>
<path d="M452.134 471.639C449.856 474.386 443.471 472.849 437.872 468.206C432.273 463.563 429.58 457.573 431.858 454.826C434.136 452.079 440.521 453.616 446.12 458.259C451.719 462.902 454.411 468.893 452.134 471.639Z" stroke="#FEFEFE" stroke-width="0.748755" stroke-miterlimit="22.9256"/>
<path d="M462.005 493.291C459.727 496.038 453.342 494.501 447.743 489.858C442.144 485.215 439.452 479.224 441.729 476.478C444.007 473.731 450.392 475.268 455.991 479.911C461.59 484.554 464.283 490.545 462.005 493.291Z" stroke="#FEFEFE" stroke-width="0.748755" stroke-miterlimit="22.9256"/>
<path d="M445.517 479.619C443.239 482.366 436.854 480.828 431.255 476.185C425.656 471.542 422.963 465.552 425.241 462.805C427.519 460.059 433.904 461.596 439.503 466.239C445.102 470.882 447.795 476.872 445.517 479.619Z" stroke="#FEFEFE" stroke-width="0.748755" stroke-miterlimit="22.9256"/>
<path d="M471.877 514.942C469.599 517.688 463.214 516.151 457.615 511.508C452.016 506.865 449.323 500.875 451.601 498.128C453.879 495.381 460.264 496.919 465.863 501.562C471.462 506.205 474.154 512.195 471.877 514.942Z" stroke="#FEFEFE" stroke-width="0.748755" stroke-miterlimit="22.9256"/>
<path d="M455.388 501.268C453.111 504.015 446.725 502.478 441.126 497.835C435.528 493.192 432.835 487.201 435.113 484.455C437.39 481.708 443.776 483.245 449.375 487.888C454.974 492.531 457.666 498.522 455.388 501.268Z" stroke="#FEFEFE" stroke-width="0.748755" stroke-miterlimit="22.9256"/>
<path d="M438.904 487.596C436.626 490.343 430.241 488.805 424.642 484.162C419.043 479.52 416.35 473.529 418.628 470.782C420.906 468.036 427.291 469.573 432.89 474.216C438.489 478.859 441.181 484.849 438.904 487.596Z" stroke="#FEFEFE" stroke-width="0.748755" stroke-miterlimit="22.9256"/>
<path d="M465.263 522.921C462.985 525.667 456.6 524.13 451.001 519.487C445.402 514.844 442.71 508.854 444.987 506.107C447.265 503.36 453.65 504.898 459.249 509.541C464.848 514.184 467.541 520.174 465.263 522.921Z" stroke="#FEFEFE" stroke-width="0.748755" stroke-miterlimit="22.9256"/>
<path d="M448.774 509.248C446.496 511.994 440.111 510.457 434.512 505.814C428.913 501.171 426.221 495.181 428.498 492.434C430.776 489.688 437.161 491.225 442.76 495.868C448.359 500.511 451.052 506.501 448.774 509.248Z" stroke="#FEFEFE" stroke-width="0.748755" stroke-miterlimit="22.9256"/>
<path d="M432.286 495.574C430.008 498.321 423.623 496.784 418.024 492.141C412.425 487.498 409.733 481.508 412.01 478.761C414.288 476.014 420.673 477.551 426.272 482.194C431.871 486.837 434.564 492.828 432.286 495.574Z" stroke="#FEFEFE" stroke-width="0.748755" stroke-miterlimit="22.9256"/>
<path d="M475.135 544.571C472.857 547.317 466.472 545.78 460.873 541.137C455.274 536.494 452.581 530.504 454.859 527.757C457.136 525.01 463.522 526.548 469.121 531.19C474.72 535.833 477.412 541.824 475.135 544.571Z" stroke="#FEFEFE" stroke-width="0.748755" stroke-miterlimit="22.9256"/>
<path d="M458.647 530.897C456.37 533.644 449.984 532.107 444.385 527.464C438.786 522.821 436.094 516.83 438.372 514.084C440.649 511.337 447.034 512.874 452.633 517.517C458.232 522.16 460.925 528.151 458.647 530.897Z" stroke="#FEFEFE" stroke-width="0.748755" stroke-miterlimit="22.9256"/>
<path d="M442.159 517.224C439.881 519.971 433.496 518.434 427.897 513.791C422.298 509.148 419.606 503.157 421.883 500.411C424.161 497.664 430.546 499.201 436.145 503.844C441.744 508.487 444.437 514.478 442.159 517.224Z" stroke="#FEFEFE" stroke-width="0.748755" stroke-miterlimit="22.9256"/>
</g>
<path fill-rule="evenodd" clip-rule="evenodd" d="M522.477 348.861C519.856 373.516 481.564 389.659 436.949 384.916C392.334 380.173 358.292 356.341 360.912 331.686C363.533 307.03 401.826 290.888 446.44 295.63C491.055 300.373 525.098 324.205 522.477 348.861Z" fill="#F08365"/>
<mask id="mask2_260_17302" style="mask-type:alpha" maskUnits="userSpaceOnUse" x="360" y="294" width="163" height="92">
<path fill-rule="evenodd" clip-rule="evenodd" d="M522.477 348.86C519.856 373.516 481.564 389.658 436.949 384.916C392.334 380.173 358.292 356.341 360.912 331.685C363.533 307.03 401.826 290.887 446.44 295.63C491.055 300.373 525.098 324.205 522.477 348.86Z" fill="#F08365"/>
</mask>
<g mask="url(#mask2_260_17302)">
<path d="M374.972 300.189C377.816 300.155 380.065 295.428 379.995 289.631C379.926 283.834 377.564 279.162 374.72 279.196C371.876 279.23 369.627 283.957 369.697 289.754C369.766 295.552 372.128 300.223 374.972 300.189Z" stroke="#FEFEFE" stroke-width="0.596807" stroke-miterlimit="22.9256"/>
<path d="M373.748 299.424C372.535 296.852 375.801 292.761 381.044 290.287C386.287 287.813 391.522 287.892 392.735 290.464C393.949 293.036 390.683 297.127 385.44 299.601C380.196 302.076 374.962 301.996 373.748 299.424Z" stroke="#FEFEFE" stroke-width="0.596808" stroke-miterlimit="22.9256"/>
<path d="M351.551 334.91C350.337 332.338 353.603 328.247 358.847 325.773C364.09 323.299 369.324 323.379 370.538 325.951C371.751 328.523 368.485 332.614 363.242 335.088C357.999 337.562 352.764 337.482 351.551 334.91Z" stroke="#FEFEFE" stroke-width="0.596808" stroke-miterlimit="22.9256"/>
<path d="M385.265 282.373C387.676 283.881 387.138 289.088 384.064 294.003C380.989 298.919 376.542 301.681 374.131 300.172C371.72 298.664 372.257 293.457 375.332 288.542C378.406 283.626 382.853 280.864 385.265 282.373Z" stroke="#FEFEFE" stroke-width="0.596809" stroke-miterlimit="22.9256"/>
<path d="M363.069 317.858C365.481 319.366 364.943 324.573 361.869 329.489C358.794 334.404 354.347 337.166 351.936 335.658C349.525 334.149 350.062 328.942 353.137 324.027C356.211 319.112 360.658 316.35 363.069 317.858Z" stroke="#FEFEFE" stroke-width="0.596809" stroke-miterlimit="22.9256"/>
<path d="M393.18 311.58C396.024 311.545 398.273 306.818 398.204 301.021C398.134 295.224 395.772 290.552 392.929 290.586C390.085 290.62 387.836 295.347 387.905 301.145C387.975 306.942 390.336 311.614 393.18 311.58Z" stroke="#FEFEFE" stroke-width="0.596807" stroke-miterlimit="22.9256"/>
<path d="M370.985 347.065C373.829 347.031 376.078 342.304 376.009 336.507C375.939 330.709 373.578 326.037 370.734 326.072C367.89 326.106 365.641 330.833 365.71 336.63C365.78 342.427 368.142 347.099 370.985 347.065Z" stroke="#FEFEFE" stroke-width="0.596807" stroke-miterlimit="22.9256"/>
<path d="M411.391 322.971C414.235 322.937 416.484 318.209 416.414 312.412C416.345 306.615 413.983 301.943 411.139 301.977C408.295 302.011 406.046 306.739 406.116 312.536C406.185 318.333 408.547 323.005 411.391 322.971Z" stroke="#FEFEFE" stroke-width="0.596807" stroke-miterlimit="22.9256"/>
<path d="M389.193 358.455C392.037 358.421 394.286 353.694 394.217 347.897C394.147 342.1 391.786 337.428 388.942 337.462C386.098 337.496 383.849 342.223 383.918 348.021C383.988 353.818 386.35 358.49 389.193 358.455Z" stroke="#FEFEFE" stroke-width="0.596807" stroke-miterlimit="22.9256"/>
<path d="M366.999 393.941C369.842 393.907 372.092 389.18 372.022 383.382C371.953 377.585 369.591 372.913 366.747 372.948C363.903 372.982 361.654 377.709 361.723 383.506C361.793 389.303 364.155 393.975 366.999 393.941Z" stroke="#FEFEFE" stroke-width="0.596807" stroke-miterlimit="22.9256"/>
<path d="M451.797 298.874C454.641 298.84 456.89 294.113 456.821 288.316C456.751 282.518 454.39 277.847 451.546 277.881C448.702 277.915 446.453 282.642 446.522 288.439C446.592 294.236 448.954 298.908 451.797 298.874Z" stroke="#FEFEFE" stroke-width="0.596807" stroke-miterlimit="22.9256"/>
<path d="M429.6 334.359C432.444 334.325 434.693 329.598 434.624 323.801C434.554 318.004 432.192 313.332 429.349 313.366C426.505 313.4 424.256 318.127 424.325 323.924C424.395 329.722 426.756 334.393 429.6 334.359Z" stroke="#FEFEFE" stroke-width="0.596807" stroke-miterlimit="22.9256"/>
<path d="M407.404 369.847C410.248 369.813 412.497 365.086 412.428 359.289C412.358 353.492 409.997 348.82 407.153 348.854C404.309 348.888 402.06 353.615 402.129 359.412C402.199 365.209 404.56 369.881 407.404 369.847Z" stroke="#FEFEFE" stroke-width="0.596807" stroke-miterlimit="22.9256"/>
<path d="M385.209 405.332C388.053 405.298 390.302 400.571 390.233 394.774C390.163 388.977 387.801 384.305 384.957 384.339C382.114 384.373 379.864 389.1 379.934 394.898C380.003 400.695 382.365 405.367 385.209 405.332Z" stroke="#FEFEFE" stroke-width="0.596807" stroke-miterlimit="22.9256"/>
<path d="M447.81 345.75C450.654 345.716 452.903 340.989 452.834 335.192C452.764 329.395 450.402 324.723 447.558 324.757C444.715 324.791 442.466 329.518 442.535 335.315C442.604 341.113 444.966 345.784 447.81 345.75Z" stroke="#FEFEFE" stroke-width="0.596807" stroke-miterlimit="22.9256"/>
<path d="M425.613 381.235C428.457 381.201 430.706 376.474 430.636 370.677C430.567 364.88 428.205 360.208 425.361 360.242C422.517 360.276 420.268 365.003 420.338 370.8C420.407 376.597 422.769 381.269 425.613 381.235Z" stroke="#FEFEFE" stroke-width="0.596807" stroke-miterlimit="22.9256"/>
<path d="M443.824 392.627C446.668 392.593 448.917 387.866 448.848 382.069C448.778 376.272 446.417 371.6 443.573 371.634C440.729 371.668 438.48 376.395 438.549 382.192C438.619 387.99 440.98 392.661 443.824 392.627Z" stroke="#FEFEFE" stroke-width="0.596807" stroke-miterlimit="22.9256"/>
<path d="M391.957 310.815C390.744 308.242 394.01 304.152 399.253 301.678C404.496 299.203 409.731 299.283 410.944 301.855C412.158 304.427 408.892 308.518 403.649 310.992C398.405 313.466 393.171 313.387 391.957 310.815Z" stroke="#FEFEFE" stroke-width="0.596808" stroke-miterlimit="22.9256"/>
<path d="M369.762 346.302C368.548 343.73 371.814 339.639 377.057 337.165C382.301 334.691 387.535 334.77 388.749 337.342C389.962 339.914 386.696 344.005 381.453 346.479C376.21 348.953 370.975 348.874 369.762 346.302Z" stroke="#FEFEFE" stroke-width="0.596808" stroke-miterlimit="22.9256"/>
<path d="M347.564 381.786C346.351 379.214 349.617 375.123 354.86 372.649C360.103 370.175 365.338 370.255 366.551 372.827C367.765 375.399 364.499 379.49 359.256 381.964C354.012 384.438 348.778 384.358 347.564 381.786Z" stroke="#FEFEFE" stroke-width="0.596808" stroke-miterlimit="22.9256"/>
<path d="M410.168 322.205C408.955 319.633 412.221 315.542 417.464 313.068C422.707 310.594 427.942 310.673 429.155 313.245C430.369 315.817 427.103 319.908 421.86 322.382C416.616 324.856 411.382 324.777 410.168 322.205Z" stroke="#FEFEFE" stroke-width="0.596808" stroke-miterlimit="22.9256"/>
<path d="M387.97 357.69C386.756 355.118 390.023 351.027 395.266 348.553C400.509 346.079 405.743 346.158 406.957 348.73C408.171 351.303 404.904 355.393 399.661 357.867C394.418 360.342 389.184 360.262 387.97 357.69Z" stroke="#FEFEFE" stroke-width="0.596808" stroke-miterlimit="22.9256"/>
<path d="M365.775 393.178C364.561 390.606 367.828 386.515 373.071 384.041C378.314 381.567 383.548 381.646 384.762 384.218C385.976 386.79 382.709 390.881 377.466 393.355C372.223 395.829 366.989 395.75 365.775 393.178Z" stroke="#FEFEFE" stroke-width="0.596808" stroke-miterlimit="22.9256"/>
<path d="M450.575 298.109C449.361 295.536 452.627 291.446 457.87 288.972C463.114 286.497 468.348 286.577 469.562 289.149C470.775 291.721 467.509 295.812 462.266 298.286C457.023 300.76 451.788 300.681 450.575 298.109Z" stroke="#FEFEFE" stroke-width="0.596808" stroke-miterlimit="22.9256"/>
<path d="M428.376 333.596C427.163 331.024 430.429 326.933 435.672 324.459C440.915 321.985 446.15 322.065 447.363 324.637C448.577 327.209 445.311 331.3 440.068 333.774C434.824 336.248 429.59 336.168 428.376 333.596Z" stroke="#FEFEFE" stroke-width="0.596808" stroke-miterlimit="22.9256"/>
<path d="M406.182 369.081C404.968 366.509 408.234 362.418 413.477 359.944C418.721 357.47 423.955 357.55 425.169 360.122C426.382 362.694 423.116 366.784 417.873 369.259C412.63 371.733 407.395 371.653 406.182 369.081Z" stroke="#FEFEFE" stroke-width="0.596808" stroke-miterlimit="22.9256"/>
<path d="M446.589 344.985C445.375 342.413 448.642 338.322 453.885 335.848C459.128 333.374 464.362 333.453 465.576 336.025C466.79 338.598 463.523 342.688 458.28 345.162C453.037 347.637 447.803 347.557 446.589 344.985Z" stroke="#FEFEFE" stroke-width="0.596808" stroke-miterlimit="22.9256"/>
<path d="M424.391 380.472C423.177 377.9 426.443 373.809 431.686 371.335C436.93 368.861 442.164 368.94 443.378 371.512C444.591 374.084 441.325 378.175 436.082 380.649C430.839 383.123 425.604 383.044 424.391 380.472Z" stroke="#FEFEFE" stroke-width="0.596808" stroke-miterlimit="22.9256"/>
<path d="M442.602 391.861C441.388 389.289 444.655 385.199 449.898 382.724C455.141 380.25 460.375 380.33 461.589 382.902C462.803 385.474 459.536 389.565 454.293 392.039C449.05 394.513 443.816 394.434 442.602 391.861Z" stroke="#FEFEFE" stroke-width="0.596808" stroke-miterlimit="22.9256"/>
<path d="M403.476 293.763C405.887 295.271 405.349 300.478 402.275 305.394C399.2 310.309 394.753 313.071 392.342 311.562C389.931 310.054 390.468 304.847 393.543 299.932C396.617 295.017 401.064 292.255 403.476 293.763Z" stroke="#FEFEFE" stroke-width="0.596809" stroke-miterlimit="22.9256"/>
<path d="M381.277 329.249C383.689 330.757 383.151 335.965 380.077 340.88C377.002 345.795 372.555 348.557 370.144 347.049C367.733 345.541 368.27 340.333 371.345 335.418C374.419 330.503 378.866 327.741 381.277 329.249Z" stroke="#FEFEFE" stroke-width="0.596809" stroke-miterlimit="22.9256"/>
<path d="M359.083 364.735C361.494 366.243 360.956 371.45 357.882 376.366C354.807 381.281 350.36 384.043 347.949 382.535C345.538 381.026 346.075 375.819 349.15 370.904C352.224 365.989 356.671 363.227 359.083 364.735Z" stroke="#FEFEFE" stroke-width="0.596809" stroke-miterlimit="22.9256"/>
<path d="M421.684 305.152C424.095 306.661 423.558 311.868 420.483 316.783C417.409 321.698 412.962 324.46 410.551 322.952C408.139 321.444 408.677 316.237 411.751 311.321C414.826 306.406 419.273 303.644 421.684 305.152Z" stroke="#FEFEFE" stroke-width="0.596809" stroke-miterlimit="22.9256"/>
<path d="M399.49 340.638C401.901 342.147 401.363 347.354 398.289 352.269C395.214 357.184 390.767 359.946 388.356 358.438C385.945 356.93 386.483 351.722 389.557 346.807C392.631 341.892 397.079 339.13 399.49 340.638Z" stroke="#FEFEFE" stroke-width="0.596809" stroke-miterlimit="22.9256"/>
<path d="M377.292 376.125C379.703 377.633 379.165 382.841 376.091 387.756C373.016 392.671 368.569 395.433 366.158 393.925C363.747 392.417 364.284 387.209 367.359 382.294C370.433 377.379 374.88 374.617 377.292 376.125Z" stroke="#FEFEFE" stroke-width="0.596809" stroke-miterlimit="22.9256"/>
<path d="M462.091 281.057C464.502 282.565 463.964 287.772 460.89 292.687C457.816 297.603 453.369 300.365 450.957 298.856C448.546 297.348 449.084 292.141 452.158 287.226C455.233 282.31 459.68 279.549 462.091 281.057Z" stroke="#FEFEFE" stroke-width="0.596809" stroke-miterlimit="22.9256"/>
<path d="M439.896 316.544C442.307 318.052 441.77 323.26 438.695 328.175C435.621 333.09 431.174 335.852 428.762 334.344C426.351 332.835 426.889 327.628 429.963 322.713C433.038 317.798 437.485 315.036 439.896 316.544Z" stroke="#FEFEFE" stroke-width="0.596809" stroke-miterlimit="22.9256"/>
<path d="M417.697 352.029C420.109 353.538 419.571 358.745 416.496 363.66C413.422 368.575 408.975 371.337 406.564 369.829C404.152 368.321 404.69 363.114 407.765 358.198C410.839 353.283 415.286 350.521 417.697 352.029Z" stroke="#FEFEFE" stroke-width="0.596809" stroke-miterlimit="22.9256"/>
<path d="M395.502 387.515C397.913 389.023 397.376 394.23 394.301 399.145C391.227 404.061 386.78 406.823 384.368 405.314C381.957 403.806 382.495 398.599 385.569 393.684C388.644 388.768 393.091 386.007 395.502 387.515Z" stroke="#FEFEFE" stroke-width="0.596809" stroke-miterlimit="22.9256"/>
<path d="M458.104 327.932C460.515 329.44 459.978 334.648 456.903 339.563C453.829 344.478 449.382 347.24 446.97 345.732C444.559 344.224 445.097 339.016 448.171 334.101C451.246 329.186 455.693 326.424 458.104 327.932Z" stroke="#FEFEFE" stroke-width="0.596809" stroke-miterlimit="22.9256"/>
<path d="M435.908 363.42C438.319 364.928 437.782 370.135 434.707 375.05C431.633 379.965 427.186 382.727 424.775 381.219C422.363 379.711 422.901 374.504 425.975 369.588C429.05 364.673 433.497 361.911 435.908 363.42Z" stroke="#FEFEFE" stroke-width="0.596809" stroke-miterlimit="22.9256"/>
<path d="M454.117 374.81C456.528 376.318 455.99 381.525 452.916 386.44C449.841 391.356 445.394 394.118 442.983 392.609C440.572 391.101 441.11 385.894 444.184 380.979C447.258 376.063 451.705 373.301 454.117 374.81Z" stroke="#FEFEFE" stroke-width="0.596809" stroke-miterlimit="22.9256"/>
<path d="M373.211 323.774C376.055 323.74 378.304 319.013 378.234 313.215C378.165 307.418 375.803 302.746 372.959 302.781C370.115 302.815 367.866 307.542 367.936 313.339C368.005 319.136 370.367 323.808 373.211 323.774Z" stroke="#FEFEFE" stroke-width="0.596807" stroke-miterlimit="22.9256"/>
<path d="M371.988 323.009C370.774 320.437 374.04 316.346 379.284 313.872C384.527 311.398 389.761 311.477 390.975 314.049C392.188 316.621 388.922 320.712 383.679 323.186C378.436 325.66 373.201 325.581 371.988 323.009Z" stroke="#FEFEFE" stroke-width="0.596808" stroke-miterlimit="22.9256"/>
<path d="M349.792 358.494C348.579 355.922 351.845 351.831 357.088 349.357C362.331 346.883 367.566 346.962 368.779 349.534C369.993 352.106 366.727 356.197 361.484 358.671C356.24 361.145 351.006 361.066 349.792 358.494Z" stroke="#FEFEFE" stroke-width="0.596808" stroke-miterlimit="22.9256"/>
<path d="M383.505 305.957C385.917 307.465 385.379 312.673 382.305 317.588C379.23 322.503 374.783 325.265 372.372 323.757C369.961 322.249 370.498 317.041 373.573 312.126C376.647 307.211 381.094 304.449 383.505 305.957Z" stroke="#FEFEFE" stroke-width="0.596809" stroke-miterlimit="22.9256"/>
<path d="M361.308 341.442C363.719 342.95 363.182 348.157 360.107 353.073C357.033 357.988 352.586 360.75 350.175 359.242C347.763 357.733 348.301 352.526 351.375 347.611C354.45 342.696 358.897 339.934 361.308 341.442Z" stroke="#FEFEFE" stroke-width="0.596809" stroke-miterlimit="22.9256"/>
<path d="M413.618 299.678C416.462 299.644 418.711 294.916 418.641 289.119C418.572 283.322 416.21 278.65 413.366 278.684C410.522 278.718 408.273 283.446 408.343 289.243C408.412 295.04 410.774 299.712 413.618 299.678Z" stroke="#FEFEFE" stroke-width="0.596807" stroke-miterlimit="22.9256"/>
<path d="M391.421 335.163C394.265 335.129 396.514 330.402 396.445 324.605C396.375 318.808 394.014 314.136 391.17 314.17C388.326 314.204 386.077 318.931 386.146 324.728C386.216 330.525 388.578 335.197 391.421 335.163Z" stroke="#FEFEFE" stroke-width="0.596807" stroke-miterlimit="22.9256"/>
<path d="M369.224 370.65C372.068 370.616 374.317 365.889 374.248 360.092C374.178 354.295 371.816 349.623 368.973 349.657C366.129 349.691 363.88 354.418 363.949 360.215C364.019 366.013 366.38 370.684 369.224 370.65Z" stroke="#FEFEFE" stroke-width="0.596807" stroke-miterlimit="22.9256"/>
<path d="M431.827 311.068C434.671 311.034 436.92 306.307 436.851 300.51C436.781 294.713 434.419 290.041 431.576 290.075C428.732 290.109 426.483 294.836 426.552 300.633C426.622 306.43 428.983 311.102 431.827 311.068Z" stroke="#FEFEFE" stroke-width="0.596807" stroke-miterlimit="22.9256"/>
<path d="M409.63 346.554C412.474 346.52 414.723 341.793 414.653 335.996C414.584 330.199 412.222 325.527 409.378 325.561C406.534 325.595 404.285 330.322 404.355 336.119C404.424 341.916 406.786 346.588 409.63 346.554Z" stroke="#FEFEFE" stroke-width="0.596807" stroke-miterlimit="22.9256"/>
<path d="M387.435 382.04C390.279 382.006 392.528 377.279 392.458 371.482C392.389 365.684 390.027 361.013 387.183 361.047C384.339 361.081 382.09 365.808 382.16 371.605C382.229 377.402 384.591 382.074 387.435 382.04Z" stroke="#FEFEFE" stroke-width="0.596807" stroke-miterlimit="22.9256"/>
<path d="M450.036 322.459C452.88 322.425 455.129 317.698 455.059 311.901C454.99 306.103 452.628 301.432 449.784 301.466C446.94 301.5 444.691 306.227 444.761 312.024C444.83 317.821 447.192 322.493 450.036 322.459Z" stroke="#FEFEFE" stroke-width="0.596807" stroke-miterlimit="22.9256"/>
<path d="M427.84 357.945C430.684 357.911 432.933 353.184 432.864 347.386C432.794 341.589 430.433 336.917 427.589 336.951C424.745 336.986 422.496 341.713 422.565 347.51C422.635 353.307 424.996 357.979 427.84 357.945Z" stroke="#FEFEFE" stroke-width="0.596807" stroke-miterlimit="22.9256"/>
<path d="M405.643 393.431C408.487 393.397 410.736 388.67 410.667 382.873C410.597 377.076 408.235 372.404 405.391 372.438C402.548 372.472 400.299 377.199 400.368 382.996C400.437 388.793 402.799 393.465 405.643 393.431Z" stroke="#FEFEFE" stroke-width="0.596807" stroke-miterlimit="22.9256"/>
<path d="M446.05 369.334C448.894 369.3 451.143 364.573 451.073 358.776C451.004 352.978 448.642 348.307 445.798 348.341C442.954 348.375 440.705 353.102 440.775 358.899C440.844 364.696 443.206 369.368 446.05 369.334Z" stroke="#FEFEFE" stroke-width="0.596807" stroke-miterlimit="22.9256"/>
<path d="M423.854 404.82C426.698 404.786 428.947 400.059 428.878 394.261C428.808 388.464 426.446 383.792 423.602 383.826C420.759 383.861 418.509 388.588 418.579 394.385C418.648 400.182 421.01 404.854 423.854 404.82Z" stroke="#FEFEFE" stroke-width="0.596807" stroke-miterlimit="22.9256"/>
<path d="M412.394 298.913C411.181 296.341 414.447 292.25 419.69 289.776C424.933 287.302 430.168 287.381 431.381 289.953C432.595 292.525 429.329 296.616 424.086 299.09C418.842 301.564 413.608 301.485 412.394 298.913Z" stroke="#FEFEFE" stroke-width="0.596808" stroke-miterlimit="22.9256"/>
<path d="M390.198 334.4C388.984 331.828 392.25 327.737 397.494 325.263C402.737 322.789 407.971 322.868 409.185 325.44C410.398 328.013 407.132 332.103 401.889 334.577C396.646 337.052 391.411 336.972 390.198 334.4Z" stroke="#FEFEFE" stroke-width="0.596808" stroke-miterlimit="22.9256"/>
<path d="M368 369.885C366.787 367.313 370.053 363.222 375.296 360.748C380.539 358.274 385.774 358.353 386.987 360.925C388.201 363.497 384.935 367.588 379.692 370.062C374.448 372.536 369.214 372.457 368 369.885Z" stroke="#FEFEFE" stroke-width="0.596808" stroke-miterlimit="22.9256"/>
<path d="M430.604 310.303C429.391 307.731 432.657 303.64 437.9 301.166C443.143 298.692 448.378 298.771 449.591 301.343C450.805 303.915 447.539 308.006 442.296 310.48C437.052 312.954 431.818 312.875 430.604 310.303Z" stroke="#FEFEFE" stroke-width="0.596808" stroke-miterlimit="22.9256"/>
<path d="M408.408 345.789C407.194 343.217 410.46 339.126 415.703 336.652C420.947 334.178 426.181 334.257 427.395 336.829C428.608 339.401 425.342 343.492 420.099 345.966C414.856 348.44 409.621 348.361 408.408 345.789Z" stroke="#FEFEFE" stroke-width="0.596808" stroke-miterlimit="22.9256"/>
<path d="M386.212 381.276C384.998 378.704 388.265 374.613 393.508 372.139C398.751 369.665 403.985 369.744 405.199 372.316C406.413 374.889 403.146 378.979 397.903 381.453C392.66 383.928 387.426 383.848 386.212 381.276Z" stroke="#FEFEFE" stroke-width="0.596808" stroke-miterlimit="22.9256"/>
<path d="M448.813 321.693C447.6 319.121 450.866 315.03 456.109 312.556C461.352 310.082 466.587 310.161 467.8 312.733C469.014 315.306 465.748 319.396 460.505 321.87C455.261 324.345 450.027 324.265 448.813 321.693Z" stroke="#FEFEFE" stroke-width="0.596808" stroke-miterlimit="22.9256"/>
<path d="M426.618 357.179C425.404 354.607 428.671 350.516 433.914 348.042C439.157 345.568 444.391 345.647 445.605 348.219C446.819 350.791 443.552 354.882 438.309 357.356C433.066 359.83 427.832 359.751 426.618 357.179Z" stroke="#FEFEFE" stroke-width="0.596808" stroke-miterlimit="22.9256"/>
<path d="M404.42 392.665C403.207 390.093 406.473 386.002 411.716 383.528C416.959 381.054 422.194 381.133 423.407 383.706C424.621 386.278 421.355 390.368 416.111 392.843C410.868 395.317 405.634 395.237 404.42 392.665Z" stroke="#FEFEFE" stroke-width="0.596808" stroke-miterlimit="22.9256"/>
<path d="M444.827 368.568C443.613 365.996 446.88 361.905 452.123 359.431C457.366 356.957 462.6 357.036 463.814 359.608C465.028 362.181 461.761 366.271 456.518 368.745C451.275 371.22 446.041 371.14 444.827 368.568Z" stroke="#FEFEFE" stroke-width="0.596808" stroke-miterlimit="22.9256"/>
<path d="M423.91 281.861C426.321 283.369 425.784 288.576 422.709 293.492C419.635 298.407 415.188 301.169 412.777 299.661C410.365 298.152 410.903 292.945 413.977 288.03C417.052 283.115 421.499 280.353 423.91 281.861Z" stroke="#FEFEFE" stroke-width="0.596809" stroke-miterlimit="22.9256"/>
<path d="M401.715 317.348C404.126 318.856 403.588 324.063 400.514 328.978C397.44 333.894 392.993 336.656 390.581 335.147C388.17 333.639 388.708 328.432 391.782 323.517C394.857 318.601 399.304 315.84 401.715 317.348Z" stroke="#FEFEFE" stroke-width="0.596809" stroke-miterlimit="22.9256"/>
<path d="M379.52 352.833C381.931 354.341 381.393 359.549 378.319 364.464C375.244 369.379 370.797 372.141 368.386 370.633C365.975 369.125 366.512 363.917 369.587 359.002C372.661 354.087 377.108 351.325 379.52 352.833Z" stroke="#FEFEFE" stroke-width="0.596809" stroke-miterlimit="22.9256"/>
<path d="M357.321 388.318C359.732 389.826 359.194 395.033 356.12 399.949C353.046 404.864 348.598 407.626 346.187 406.118C343.776 404.609 344.314 399.402 347.388 394.487C350.463 389.572 354.91 386.81 357.321 388.318Z" stroke="#FEFEFE" stroke-width="0.596809" stroke-miterlimit="22.9256"/>
<path d="M442.121 293.251C444.532 294.759 443.995 299.967 440.92 304.882C437.846 309.797 433.399 312.559 430.988 311.051C428.576 309.542 429.114 304.335 432.188 299.42C435.263 294.505 439.71 291.743 442.121 293.251Z" stroke="#FEFEFE" stroke-width="0.596809" stroke-miterlimit="22.9256"/>
<path d="M419.925 328.737C422.337 330.245 421.799 335.452 418.724 340.368C415.65 345.283 411.203 348.045 408.792 346.537C406.38 345.028 406.918 339.821 409.993 334.906C413.067 329.991 417.514 327.229 419.925 328.737Z" stroke="#FEFEFE" stroke-width="0.596809" stroke-miterlimit="22.9256"/>
<path d="M397.728 364.224C400.139 365.732 399.601 370.939 396.527 375.854C393.452 380.77 389.005 383.532 386.594 382.023C384.183 380.515 384.72 375.308 387.795 370.393C390.869 365.477 395.316 362.716 397.728 364.224Z" stroke="#FEFEFE" stroke-width="0.596809" stroke-miterlimit="22.9256"/>
<path d="M460.33 304.641C462.741 306.149 462.204 311.356 459.129 316.271C456.055 321.187 451.608 323.949 449.197 322.44C446.785 320.932 447.323 315.725 450.397 310.81C453.472 305.894 457.919 303.133 460.33 304.641Z" stroke="#FEFEFE" stroke-width="0.596809" stroke-miterlimit="22.9256"/>
<path d="M438.134 340.128C440.546 341.636 440.008 346.843 436.933 351.758C433.859 356.673 429.412 359.435 427.001 357.927C424.589 356.419 425.127 351.212 428.202 346.296C431.276 341.381 435.723 338.619 438.134 340.128Z" stroke="#FEFEFE" stroke-width="0.596809" stroke-miterlimit="22.9256"/>
<path d="M415.939 375.612C418.351 377.121 417.813 382.328 414.739 387.243C411.664 392.158 407.217 394.92 404.806 393.412C402.395 391.904 402.932 386.697 406.007 381.781C409.081 376.866 413.528 374.104 415.939 375.612Z" stroke="#FEFEFE" stroke-width="0.596809" stroke-miterlimit="22.9256"/>
<path d="M456.344 351.519C458.756 353.027 458.218 358.234 455.143 363.149C452.069 368.065 447.622 370.827 445.211 369.318C442.799 367.81 443.337 362.603 446.412 357.688C449.486 352.772 453.933 350.01 456.344 351.519Z" stroke="#FEFEFE" stroke-width="0.596809" stroke-miterlimit="22.9256"/>
<path d="M434.147 387.004C436.558 388.512 436.021 393.719 432.946 398.635C429.872 403.55 425.425 406.312 423.013 404.804C420.602 403.295 421.14 398.088 424.214 393.173C427.289 388.258 431.736 385.496 434.147 387.004Z" stroke="#FEFEFE" stroke-width="0.596809" stroke-miterlimit="22.9256"/>
</g>
<path fill-rule="evenodd" clip-rule="evenodd" d="M446.727 220.518C462.211 211.854 462.054 182.116 446.377 154.096C430.699 126.077 405.437 110.386 389.952 119.051C374.468 127.715 374.625 157.453 390.302 185.472C405.98 213.491 431.243 229.182 446.727 220.518Z" fill="#E6BE80"/>
<mask id="mask3_260_17302" style="mask-type:alpha" maskUnits="userSpaceOnUse" x="378" y="116" width="81" height="107">
<path fill-rule="evenodd" clip-rule="evenodd" d="M446.728 220.517C462.212 211.853 462.055 182.115 446.378 154.096C430.7 126.077 405.438 110.386 389.953 119.05C374.469 127.714 374.626 157.452 390.303 185.472C405.981 213.491 431.243 229.182 446.728 220.517Z" fill="#E6BE80"/>
</mask>
<g mask="url(#mask3_260_17302)">
<path d="M365.652 115.093C363.937 111.964 367.718 106.593 374.097 103.098C380.475 99.6019 387.036 99.3048 388.751 102.434C390.466 105.563 386.685 110.933 380.307 114.429C373.928 117.925 367.367 118.222 365.652 115.093Z" stroke="#FEFEFE" stroke-width="0.748755" stroke-miterlimit="22.9256"/>
<path d="M378.782 92.866C381.916 94.5721 381.637 101.134 378.16 107.522C374.682 113.911 369.322 117.706 366.188 116C363.054 114.294 363.333 107.732 366.811 101.344C370.288 94.9557 375.648 91.16 378.782 92.866Z" stroke="#FEFEFE" stroke-width="0.748755" stroke-miterlimit="22.9256"/>
<path d="M368.326 124.153C368.584 127.712 374.675 130.17 381.929 129.644C389.184 129.118 394.856 125.806 394.597 122.247C394.339 118.688 388.249 116.23 380.994 116.756C373.74 117.282 368.068 120.594 368.326 124.153Z" stroke="#FEFEFE" stroke-width="0.748756" stroke-miterlimit="22.9256"/>
<path d="M369.191 122.563C372.321 120.848 377.691 124.629 381.187 131.008C384.682 137.386 384.979 143.947 381.85 145.662C378.721 147.377 373.351 143.596 369.855 137.218C366.359 130.839 366.062 124.278 369.191 122.563Z" stroke="#FEFEFE" stroke-width="0.748755" stroke-miterlimit="22.9256"/>
<path d="M391.418 135.693C389.712 138.827 383.15 138.548 376.762 135.071C370.374 131.593 366.578 126.233 368.284 123.099C369.99 119.965 376.552 120.244 382.94 123.722C389.328 127.2 393.124 132.559 391.418 135.693Z" stroke="#FEFEFE" stroke-width="0.748755" stroke-miterlimit="22.9256"/>
<path d="M358.416 228.672C356.701 225.543 360.482 220.173 366.86 216.677C373.239 213.181 379.8 212.884 381.515 216.013C383.229 219.143 379.449 224.513 373.07 228.009C366.692 231.504 360.131 231.801 358.416 228.672Z" stroke="#FEFEFE" stroke-width="0.748755" stroke-miterlimit="22.9256"/>
<path d="M387.515 179.008C389.23 182.137 385.449 187.507 379.071 191.003C372.692 194.499 366.131 194.796 364.417 191.667C362.702 188.538 366.482 183.167 372.861 179.672C379.239 176.176 385.8 175.879 387.515 179.008Z" stroke="#FEFEFE" stroke-width="0.748755" stroke-miterlimit="22.9256"/>
<path d="M385.923 178.142C382.364 178.4 379.906 184.49 380.432 191.745C380.959 198.999 384.27 204.671 387.829 204.413C391.388 204.155 393.846 198.064 393.32 190.81C392.794 183.555 389.482 177.884 385.923 178.142Z" stroke="#FEFEFE" stroke-width="0.748756" stroke-miterlimit="22.9256"/>
<path d="M374.384 201.235C377.518 202.941 382.878 199.145 386.356 192.757C389.833 186.368 390.112 179.806 386.978 178.1C383.844 176.394 378.484 180.19 375.007 186.578C371.529 192.967 371.25 199.528 374.384 201.235Z" stroke="#FEFEFE" stroke-width="0.748755" stroke-miterlimit="22.9256"/>
<path d="M383.977 171.537C380.848 173.252 375.478 169.471 371.982 163.093C368.487 156.714 368.19 150.153 371.319 148.439C374.448 146.724 379.818 150.504 383.314 156.883C386.809 163.261 387.107 169.822 383.977 171.537Z" stroke="#FEFEFE" stroke-width="0.748755" stroke-miterlimit="22.9256"/>
<path d="M384.842 169.947C384.584 166.388 378.494 163.93 371.239 164.456C363.985 164.983 358.313 168.294 358.571 171.853C358.829 175.412 364.92 177.87 372.174 177.344C379.429 176.818 385.1 173.506 384.842 169.947Z" stroke="#FEFEFE" stroke-width="0.748756" stroke-miterlimit="22.9256"/>
<path d="M361.749 158.407C360.043 161.541 363.839 166.9 370.227 170.378C376.615 173.856 383.177 174.135 384.883 171.001C386.589 167.867 382.793 162.507 376.405 159.029C370.017 155.551 363.455 155.273 361.749 158.407Z" stroke="#FEFEFE" stroke-width="0.748755" stroke-miterlimit="22.9256"/>
<path d="M393.038 168.864C396.596 168.606 399.055 162.516 398.529 155.261C398.002 148.007 394.691 142.335 391.132 142.593C387.573 142.851 385.115 148.942 385.641 156.196C386.167 163.451 389.479 169.122 393.038 168.864Z" stroke="#FEFEFE" stroke-width="0.748756" stroke-miterlimit="22.9256"/>
<path d="M391.445 167.998C389.73 164.869 393.511 159.498 399.89 156.003C406.268 152.507 412.829 152.21 414.544 155.339C416.259 158.468 412.478 163.839 406.1 167.334C399.721 170.83 393.16 171.127 391.445 167.998Z" stroke="#FEFEFE" stroke-width="0.748755" stroke-miterlimit="22.9256"/>
<path d="M404.578 145.771C407.712 147.477 407.433 154.039 403.955 160.428C400.478 166.816 395.118 170.612 391.984 168.906C388.85 167.199 389.129 160.638 392.607 154.249C396.084 147.861 401.444 144.065 404.578 145.771Z" stroke="#FEFEFE" stroke-width="0.748755" stroke-miterlimit="22.9256"/>
<path d="M394.121 177.06C394.379 180.618 400.47 183.077 407.724 182.551C414.979 182.024 420.65 178.713 420.392 175.154C420.134 171.595 414.044 169.137 406.789 169.663C399.535 170.189 393.863 173.501 394.121 177.06Z" stroke="#FEFEFE" stroke-width="0.748756" stroke-miterlimit="22.9256"/>
<path d="M394.986 175.47C398.115 173.755 403.486 177.536 406.982 183.914C410.477 190.293 410.774 196.854 407.645 198.569C404.516 200.284 399.146 196.503 395.65 190.124C392.154 183.746 391.857 177.185 394.986 175.47Z" stroke="#FEFEFE" stroke-width="0.748755" stroke-miterlimit="22.9256"/>
<path d="M417.213 188.6C415.507 191.734 408.945 191.455 402.557 187.977C396.169 184.5 392.373 179.14 394.079 176.006C395.785 172.872 402.347 173.151 408.735 176.629C415.123 180.106 418.919 185.466 417.213 188.6Z" stroke="#FEFEFE" stroke-width="0.748755" stroke-miterlimit="22.9256"/>
<path d="M420.544 118.336C422.259 121.466 418.478 126.836 412.1 130.332C405.721 133.827 399.16 134.124 397.445 130.995C395.73 127.866 399.511 122.496 405.89 119C412.268 115.505 418.829 115.207 420.544 118.336Z" stroke="#FEFEFE" stroke-width="0.748755" stroke-miterlimit="22.9256"/>
<path d="M418.953 117.47C415.394 117.728 412.935 123.819 413.462 131.073C413.988 138.328 417.3 144 420.858 143.741C424.417 143.483 426.876 137.393 426.349 130.138C425.823 122.884 422.511 117.212 418.953 117.47Z" stroke="#FEFEFE" stroke-width="0.748756" stroke-miterlimit="22.9256"/>
<path d="M407.413 140.563C410.547 142.269 415.907 138.473 419.384 132.085C422.862 125.696 423.141 119.135 420.007 117.428C416.873 115.722 411.513 119.518 408.036 125.906C404.558 132.295 404.279 138.857 407.413 140.563Z" stroke="#FEFEFE" stroke-width="0.748755" stroke-miterlimit="22.9256"/>
<path d="M417.869 109.275C417.611 105.716 411.521 103.258 404.266 103.784C397.011 104.31 391.34 107.622 391.598 111.181C391.856 114.739 397.946 117.198 405.201 116.672C412.456 116.145 418.127 112.834 417.869 109.275Z" stroke="#FEFEFE" stroke-width="0.748756" stroke-miterlimit="22.9256"/>
<path d="M427.147 116.387C427.405 119.946 433.495 122.404 440.75 121.878C448.004 121.352 453.676 118.04 453.418 114.481C453.159 110.923 447.069 108.464 439.815 108.991C432.56 109.517 426.888 112.828 427.147 116.387Z" stroke="#FEFEFE" stroke-width="0.748756" stroke-miterlimit="22.9256"/>
<path d="M428.012 114.798C431.141 113.083 436.512 116.864 440.007 123.242C443.503 129.621 443.8 136.182 440.671 137.896C437.542 139.611 432.172 135.831 428.676 129.452C425.18 123.074 424.883 116.513 428.012 114.798Z" stroke="#FEFEFE" stroke-width="0.748755" stroke-miterlimit="22.9256"/>
<path d="M450.241 127.929C448.535 131.062 441.974 130.784 435.585 127.306C429.197 123.828 425.401 118.468 427.107 115.335C428.813 112.201 435.375 112.479 441.763 115.957C448.152 119.435 451.947 124.795 450.241 127.929Z" stroke="#FEFEFE" stroke-width="0.748755" stroke-miterlimit="22.9256"/>
<path d="M471.028 224.473C472.743 227.602 468.962 232.972 462.584 236.468C456.205 239.964 449.644 240.261 447.929 237.132C446.214 234.002 449.995 228.632 456.374 225.136C462.752 221.641 469.313 221.344 471.028 224.473Z" stroke="#FEFEFE" stroke-width="0.748755" stroke-miterlimit="22.9256"/>
<path d="M467.49 217.002C464.361 218.717 458.991 214.936 455.495 208.558C451.999 202.179 451.702 195.618 454.831 193.903C457.96 192.189 463.331 195.969 466.827 202.348C470.322 208.726 470.619 215.287 467.49 217.002Z" stroke="#FEFEFE" stroke-width="0.748755" stroke-miterlimit="22.9256"/>
<path d="M468.355 215.412C468.097 211.853 462.006 209.395 454.752 209.921C447.497 210.447 441.826 213.759 442.084 217.318C442.342 220.877 448.432 223.335 455.687 222.809C462.941 222.283 468.613 218.971 468.355 215.412Z" stroke="#FEFEFE" stroke-width="0.748756" stroke-miterlimit="22.9256"/>
<path d="M445.262 203.871C443.556 207.005 447.351 212.365 453.74 215.843C460.128 219.321 466.69 219.599 468.396 216.465C470.102 213.332 466.306 207.972 459.918 204.494C453.529 201.016 446.968 200.738 445.262 203.871Z" stroke="#FEFEFE" stroke-width="0.748755" stroke-miterlimit="22.9256"/>
<path d="M408.666 224.767C405.537 226.482 400.166 222.701 396.671 216.323C393.175 209.944 392.878 203.383 396.007 201.668C399.136 199.954 404.507 203.734 408.002 210.113C411.498 216.491 411.795 223.052 408.666 224.767Z" stroke="#FEFEFE" stroke-width="0.748755" stroke-miterlimit="22.9256"/>
<path d="M409.531 223.178C409.273 219.619 403.183 217.16 395.928 217.687C388.674 218.213 383.002 221.525 383.26 225.083C383.518 228.642 389.609 231.101 396.863 230.574C404.118 230.048 409.789 226.737 409.531 223.178Z" stroke="#FEFEFE" stroke-width="0.748756" stroke-miterlimit="22.9256"/>
<path d="M386.44 211.637C384.734 214.771 388.529 220.131 394.918 223.609C401.306 227.086 407.868 227.365 409.574 224.231C411.28 221.097 407.484 215.737 401.096 212.26C394.708 208.782 388.146 208.503 386.44 211.637Z" stroke="#FEFEFE" stroke-width="0.748755" stroke-miterlimit="22.9256"/>
<path d="M417.725 222.096C421.284 221.837 423.742 215.747 423.216 208.493C422.69 201.238 419.378 195.566 415.819 195.825C412.261 196.083 409.802 202.173 410.328 209.428C410.855 216.682 414.166 222.354 417.725 222.096Z" stroke="#FEFEFE" stroke-width="0.748756" stroke-miterlimit="22.9256"/>
<path d="M416.136 221.23C414.421 218.101 418.202 212.731 424.58 209.235C430.959 205.74 437.52 205.442 439.235 208.572C440.95 211.701 437.169 217.071 430.79 220.567C424.412 224.062 417.851 224.36 416.136 221.23Z" stroke="#FEFEFE" stroke-width="0.748755" stroke-miterlimit="22.9256"/>
<path d="M429.268 199.003C432.402 200.709 432.123 207.271 428.645 213.659C425.168 220.048 419.808 223.843 416.674 222.137C413.54 220.431 413.819 213.87 417.297 207.481C420.774 201.093 426.134 197.297 429.268 199.003Z" stroke="#FEFEFE" stroke-width="0.748755" stroke-miterlimit="22.9256"/>
<path d="M418.81 230.29C419.068 233.849 425.158 236.307 432.413 235.781C439.667 235.255 445.339 231.943 445.081 228.384C444.823 224.825 438.732 222.367 431.478 222.893C424.223 223.42 418.552 226.731 418.81 230.29Z" stroke="#FEFEFE" stroke-width="0.748756" stroke-miterlimit="22.9256"/>
<path d="M445.234 171.567C446.949 174.696 443.168 180.066 436.79 183.562C430.411 187.058 423.85 187.355 422.135 184.226C420.42 181.097 424.201 175.726 430.58 172.231C436.958 168.735 443.519 168.438 445.234 171.567Z" stroke="#FEFEFE" stroke-width="0.748755" stroke-miterlimit="22.9256"/>
<path d="M443.644 170.702C440.086 170.96 437.627 177.05 438.154 184.305C438.68 191.559 441.991 197.231 445.55 196.973C449.109 196.715 451.568 190.624 451.041 183.37C450.515 176.115 447.203 170.444 443.644 170.702Z" stroke="#FEFEFE" stroke-width="0.748756" stroke-miterlimit="22.9256"/>
<path d="M432.103 193.794C435.237 195.5 440.597 191.704 444.074 185.316C447.552 178.927 447.831 172.365 444.697 170.659C441.563 168.953 436.203 172.749 432.725 179.137C429.248 185.526 428.969 192.088 432.103 193.794Z" stroke="#FEFEFE" stroke-width="0.748755" stroke-miterlimit="22.9256"/>
<path d="M441.698 164.096C438.569 165.811 433.198 162.03 429.703 155.651C426.207 149.273 425.91 142.712 429.039 140.997C432.168 139.282 437.538 143.063 441.034 149.441C444.53 155.82 444.827 162.381 441.698 164.096Z" stroke="#FEFEFE" stroke-width="0.748755" stroke-miterlimit="22.9256"/>
<path d="M442.562 162.506C442.304 158.947 436.214 156.489 428.959 157.015C421.705 157.542 416.033 160.853 416.291 164.412C416.549 167.971 422.64 170.429 429.894 169.903C437.149 169.377 442.821 166.065 442.562 162.506Z" stroke="#FEFEFE" stroke-width="0.748756" stroke-miterlimit="22.9256"/>
<path d="M419.471 150.966C417.765 154.1 421.561 159.459 427.949 162.937C434.337 166.415 440.899 166.694 442.605 163.56C444.311 160.426 440.516 155.066 434.127 151.588C427.739 148.111 421.177 147.832 419.471 150.966Z" stroke="#FEFEFE" stroke-width="0.748755" stroke-miterlimit="22.9256"/>
<path d="M450.756 161.424C454.315 161.166 456.773 155.076 456.247 147.821C455.721 140.567 452.409 134.895 448.85 135.153C445.291 135.411 442.833 141.502 443.359 148.756C443.885 156.011 447.197 161.682 450.756 161.424Z" stroke="#FEFEFE" stroke-width="0.748756" stroke-miterlimit="22.9256"/>
<path d="M449.166 160.558C447.451 157.429 451.232 152.059 457.611 148.563C463.989 145.067 470.55 144.77 472.265 147.899C473.98 151.028 470.199 156.399 463.821 159.894C457.442 163.39 450.881 163.687 449.166 160.558Z" stroke="#FEFEFE" stroke-width="0.748755" stroke-miterlimit="22.9256"/>
<path d="M462.296 138.331C465.43 140.037 465.151 146.599 461.674 152.988C458.196 159.376 452.836 163.172 449.702 161.466C446.568 159.76 446.847 153.198 450.325 146.809C453.803 140.421 459.162 136.625 462.296 138.331Z" stroke="#FEFEFE" stroke-width="0.748755" stroke-miterlimit="22.9256"/>
<path d="M451.839 169.618C452.098 173.177 458.188 175.635 465.442 175.109C472.697 174.583 478.369 171.271 478.111 167.712C477.852 164.154 471.762 161.695 464.508 162.221C457.253 162.748 451.581 166.059 451.839 169.618Z" stroke="#FEFEFE" stroke-width="0.748756" stroke-miterlimit="22.9256"/>
<path d="M452.705 168.029C455.834 166.314 461.204 170.094 464.7 176.473C468.195 182.852 468.493 189.413 465.364 191.127C462.234 192.842 456.864 189.062 453.368 182.683C449.873 176.304 449.576 169.743 452.705 168.029Z" stroke="#FEFEFE" stroke-width="0.748755" stroke-miterlimit="22.9256"/>
<path d="M474.931 181.159C473.225 184.293 466.663 184.014 460.275 180.536C453.887 177.059 450.091 171.699 451.797 168.565C453.503 165.431 460.065 165.71 466.453 169.188C472.842 172.665 476.637 178.025 474.931 181.159Z" stroke="#FEFEFE" stroke-width="0.748755" stroke-miterlimit="22.9256"/>
</g>
</g>
<defs>
<clipPath id="clip0_260_17302">
<rect width="931.202" height="488.881" fill="white" transform="matrix(-0.973667 -0.227973 -0.227973 0.973667 1019.03 212.289)"/>
</clipPath>
</defs>
</svg>
